<svg xmlns="http://www.w3.org/2000/svg" xmlns:xlink="http://www.w3.org/1999/xlink" width="1080" zoomAndPan="magnify" viewBox="0 0 810 809.999993" height="1080" preserveAspectRatio="xMidYMid meet" version="1.0"><defs><g/><clipPath id="21c11f855b"><path d="M 366 296 L 521 296 L 521 415 L 366 415 Z M 366 296 " clip-rule="nonzero"/></clipPath><clipPath id="014d2c71e4"><path d="M 351.113281 236.585938 L 539.992188 317.644531 L 458.933594 506.523438 L 270.054688 425.464844 Z M 351.113281 236.585938 " clip-rule="nonzero"/></clipPath><clipPath id="5f35f525ef"><path d="M 344.875 216.082031 L 559.804688 308.320312 L 467.566406 523.25 L 252.632812 431.011719 Z M 344.875 216.082031 " clip-rule="nonzero"/></clipPath><clipPath id="f2b1c58aea"><path d="M 292 325 L 446 325 L 446 443 L 292 443 Z M 292 325 " clip-rule="nonzero"/></clipPath><clipPath id="59f87255be"><path d="M 351.113281 236.585938 L 539.992188 317.644531 L 458.933594 506.523438 L 270.054688 425.464844 Z M 351.113281 236.585938 " clip-rule="nonzero"/></clipPath><clipPath id="4e8b113bf7"><path d="M 344.875 216.082031 L 559.804688 308.320312 L 467.566406 523.25 L 252.632812 431.011719 Z M 344.875 216.082031 " clip-rule="nonzero"/></clipPath></defs><g clip-path="url(#21c11f855b)"><g clip-path="url(#014d2c71e4)"><g clip-path="url(#5f35f525ef)"><path fill="#1ed760" d="M 411.121094 317.488281 L 454.796875 300.046875 C 454.796875 300.046875 498.46875 282.601562 515.914062 326.273438 C 533.355469 369.949219 489.683594 387.390625 489.683594 387.390625 L 431.453125 410.652344 C 431.453125 410.652344 387.777344 428.09375 370.335938 384.421875 C 367.0625 376.234375 366.78125 367.09375 366.78125 367.09375 L 391.175781 357.371094 C 391.175781 357.371094 387.507812 364.023438 392.171875 375.699219 C 392.171875 375.699219 400.894531 397.535156 422.730469 388.816406 L 480.960938 365.554688 C 480.960938 365.554688 502.796875 356.832031 494.074219 334.996094 C 485.355469 313.160156 463.515625 321.882812 463.515625 321.882812 L 436.375 332.722656 C 436.375 332.722656 430.257812 320.925781 408.390625 318.578125 Z M 411.121094 317.488281 " fill-opacity="1" fill-rule="nonzero"/></g></g></g><g clip-path="url(#f2b1c58aea)"><g clip-path="url(#59f87255be)"><g clip-path="url(#4e8b113bf7)"><path fill="#1ed760" d="M 401.546875 421.941406 L 357.875 439.386719 C 357.875 439.386719 314.199219 456.832031 296.757812 413.15625 C 279.3125 369.484375 322.984375 352.039062 322.984375 352.039062 L 381.214844 328.78125 C 381.214844 328.78125 424.890625 311.335938 442.335938 355.007812 C 445.605469 363.199219 445.886719 372.335938 445.886719 372.335938 L 421.484375 382.0625 C 421.484375 382.0625 425.15625 375.40625 420.492188 363.730469 C 420.492188 363.730469 411.769531 341.894531 389.933594 350.613281 L 331.703125 373.875 C 331.703125 373.875 309.867188 382.597656 318.585938 404.433594 C 327.308594 426.269531 349.144531 417.546875 349.144531 417.546875 L 376.289062 406.707031 C 376.289062 406.707031 382.40625 418.503906 404.273438 420.847656 Z M 401.546875 421.941406 " fill-opacity="1" fill-rule="nonzero"/></g></g></g><g fill="#ffffff" fill-opacity="1"><g transform="translate(175.576067, 536.823253)"><g><path d="M 12.40625 -103.375 L 35.15625 -103.375 L 35.15625 -20.671875 L 86.6875 -20.671875 L 86.6875 0 L 12.40625 0 Z M 12.40625 -103.375 "/></g></g></g><g fill="#ffffff" fill-opacity="1"><g transform="translate(253.404698, 536.823253)"><g><path d="M 10.484375 -107.8125 L 34.109375 -107.8125 L 34.109375 -87.875 L 10.484375 -87.875 Z M 11.078125 -79.15625 L 33.53125 -79.15625 L 33.53125 0 L 11.078125 0 Z M 11.078125 -79.15625 "/></g></g></g><g fill="#ffffff" fill-opacity="1"><g transform="translate(284.4174, 536.823253)"><g><path d="M 10.046875 -79.15625 L 32.484375 -79.15625 L 32.484375 -67.9375 C 33.765625 -69.613281 35.164062 -71.210938 36.6875 -72.734375 C 38.21875 -74.265625 39.921875 -75.617188 41.796875 -76.796875 C 43.671875 -77.972656 45.738281 -78.90625 48 -79.59375 C 50.257812 -80.289062 52.816406 -80.640625 55.671875 -80.640625 C 64.242188 -80.640625 70.867188 -78.03125 75.546875 -72.8125 C 80.222656 -67.59375 82.5625 -60.40625 82.5625 -51.25 L 82.5625 0 L 60.109375 0 L 60.109375 -44.15625 C 60.109375 -49.476562 58.925781 -53.488281 56.5625 -56.1875 C 54.195312 -58.894531 50.847656 -60.25 46.515625 -60.25 C 42.179688 -60.25 38.757812 -58.894531 36.25 -56.1875 C 33.738281 -53.488281 32.484375 -49.476562 32.484375 -44.15625 L 32.484375 0 L 10.046875 0 Z M 10.046875 -79.15625 "/></g></g></g><g fill="#ffffff" fill-opacity="1"><g transform="translate(362.836755, 536.823253)"><g><path d="M 10.046875 -107.8125 L 32.484375 -107.8125 L 32.484375 -50.359375 L 58.78125 -79.15625 L 85.65625 -79.15625 L 55.53125 -48 L 86.6875 0 L 60.703125 0 L 40.46875 -32.484375 L 32.484375 -24.078125 L 32.484375 0 L 10.046875 0 Z M 10.046875 -107.8125 "/></g></g></g><g fill="#ffffff" fill-opacity="1"><g transform="translate(436.677898, 536.823253)"><g><path d="M 55.53125 1.625 C 41.644531 1.625 30.710938 -2.210938 22.734375 -9.890625 C 14.765625 -17.578125 10.78125 -29.050781 10.78125 -44.3125 L 10.78125 -103.375 L 33.53125 -103.375 L 33.53125 -44.890625 C 33.53125 -36.429688 35.5 -30.054688 39.4375 -25.765625 C 43.375 -21.484375 48.835938 -19.34375 55.828125 -19.34375 C 62.816406 -19.34375 68.28125 -21.410156 72.21875 -25.546875 C 76.15625 -29.679688 78.125 -35.882812 78.125 -44.15625 L 78.125 -103.375 L 100.875 -103.375 L 100.875 -45.046875 C 100.875 -37.171875 99.8125 -30.328125 97.6875 -24.515625 C 95.570312 -18.703125 92.546875 -13.851562 88.609375 -9.96875 C 84.671875 -6.082031 79.894531 -3.175781 74.28125 -1.25 C 68.675781 0.664062 62.425781 1.625 55.53125 1.625 Z M 55.53125 1.625 "/></g></g></g><g fill="#ffffff" fill-opacity="1"><g transform="translate(534.739273, 536.823253)"><g><path d="M 10.046875 -79.15625 L 32.484375 -79.15625 L 32.484375 -67.78125 C 35.242188 -71.53125 38.566406 -74.609375 42.453125 -77.015625 C 46.347656 -79.429688 51.25 -80.640625 57.15625 -80.640625 C 61.78125 -80.640625 66.257812 -79.753906 70.59375 -77.984375 C 74.925781 -76.210938 78.765625 -73.578125 82.109375 -70.078125 C 85.460938 -66.578125 88.144531 -62.289062 90.15625 -57.21875 C 92.175781 -52.15625 93.1875 -46.328125 93.1875 -39.734375 L 93.1875 -39.4375 C 93.1875 -32.832031 92.175781 -26.992188 90.15625 -21.921875 C 88.144531 -16.859375 85.488281 -12.578125 82.1875 -9.078125 C 78.882812 -5.585938 75.066406 -2.953125 70.734375 -1.171875 C 66.410156 0.597656 61.882812 1.484375 57.15625 1.484375 C 51.144531 1.484375 46.195312 0.300781 42.3125 -2.0625 C 38.425781 -4.425781 35.148438 -7.1875 32.484375 -10.34375 L 32.484375 23.625 L 10.046875 23.625 Z M 51.390625 -17.578125 C 54.046875 -17.578125 56.53125 -18.09375 58.84375 -19.125 C 61.164062 -20.15625 63.210938 -21.628906 64.984375 -23.546875 C 66.753906 -25.472656 68.15625 -27.765625 69.1875 -30.421875 C 70.226562 -33.078125 70.75 -36.082031 70.75 -39.4375 L 70.75 -39.734375 C 70.75 -42.984375 70.226562 -45.957031 69.1875 -48.65625 C 68.15625 -51.363281 66.753906 -53.675781 64.984375 -55.59375 C 63.210938 -57.519531 61.164062 -59 58.84375 -60.03125 C 56.53125 -61.0625 54.046875 -61.578125 51.390625 -61.578125 C 48.734375 -61.578125 46.25 -61.0625 43.9375 -60.03125 C 41.625 -59 39.601562 -57.519531 37.875 -55.59375 C 36.15625 -53.675781 34.78125 -51.363281 33.75 -48.65625 C 32.71875 -45.957031 32.203125 -42.984375 32.203125 -39.734375 L 32.203125 -39.4375 C 32.203125 -36.1875 32.71875 -33.207031 33.75 -30.5 C 34.78125 -27.789062 36.15625 -25.472656 37.875 -23.546875 C 39.601562 -21.628906 41.625 -20.15625 43.9375 -19.125 C 46.25 -18.09375 48.734375 -17.578125 51.390625 -17.578125 Z M 51.390625 -17.578125 "/></g></g></g></svg>